<mxfile host="app.diagrams.net" modified="2023-07-24T14:47:29.932Z" agent="Mozilla/5.0 (Windows NT 10.0; Win64; x64) AppleWebKit/537.36 (KHTML, like Gecko) Chrome/114.0.0.0 Safari/537.36" etag="Fk51TsJadOfNeo1xo9MF" version="21.6.5" type="github">
  <diagram name="Страница 1" id="mX5kmYShtFkmm-ya2xmJ">
    <mxGraphModel dx="875" dy="478" grid="1" gridSize="10" guides="1" tooltips="1" connect="1" arrows="1" fold="1" page="1" pageScale="1" pageWidth="827" pageHeight="1169" math="0" shadow="0">
      <root>
        <mxCell id="0" />
        <mxCell id="1" parent="0" />
        <mxCell id="aYPPFLXNqS9zzQtZPR38-1" value="" style="ellipse;whiteSpace=wrap;html=1;aspect=fixed;" vertex="1" parent="1">
          <mxGeometry x="360" y="40" width="80" height="80" as="geometry" />
        </mxCell>
        <mxCell id="aYPPFLXNqS9zzQtZPR38-2" value="Начало" style="text;html=1;align=center;verticalAlign=middle;resizable=0;points=[];autosize=1;strokeColor=none;fillColor=none;" vertex="1" parent="1">
          <mxGeometry x="365" y="65" width="70" height="30" as="geometry" />
        </mxCell>
        <mxCell id="aYPPFLXNqS9zzQtZPR38-3" value="" style="endArrow=classic;html=1;rounded=0;" edge="1" parent="1">
          <mxGeometry width="50" height="50" relative="1" as="geometry">
            <mxPoint x="399.71" y="120" as="sourcePoint" />
            <mxPoint x="400" y="200" as="targetPoint" />
          </mxGeometry>
        </mxCell>
        <mxCell id="aYPPFLXNqS9zzQtZPR38-4" value="" style="rounded=0;whiteSpace=wrap;html=1;" vertex="1" parent="1">
          <mxGeometry x="280" y="200" width="240" height="60" as="geometry" />
        </mxCell>
        <mxCell id="aYPPFLXNqS9zzQtZPR38-5" value="Здравствуйте!&lt;br&gt;Предлагаем вам ознакомится с плюсами&lt;br&gt;оформления кредитной карты Тинькофф" style="text;html=1;align=center;verticalAlign=middle;resizable=0;points=[];autosize=1;strokeColor=none;fillColor=none;" vertex="1" parent="1">
          <mxGeometry x="275" y="200" width="250" height="60" as="geometry" />
        </mxCell>
        <mxCell id="aYPPFLXNqS9zzQtZPR38-8" value="" style="endArrow=classic;html=1;rounded=0;" edge="1" parent="1">
          <mxGeometry width="50" height="50" relative="1" as="geometry">
            <mxPoint x="520" y="230" as="sourcePoint" />
            <mxPoint x="640" y="230" as="targetPoint" />
          </mxGeometry>
        </mxCell>
        <mxCell id="aYPPFLXNqS9zzQtZPR38-9" value="" style="endArrow=classic;html=1;rounded=0;" edge="1" parent="1">
          <mxGeometry width="50" height="50" relative="1" as="geometry">
            <mxPoint x="280" y="229.71" as="sourcePoint" />
            <mxPoint x="200" y="229.71" as="targetPoint" />
          </mxGeometry>
        </mxCell>
        <mxCell id="aYPPFLXNqS9zzQtZPR38-10" value="" style="endArrow=classic;html=1;rounded=0;exitX=0.344;exitY=1.011;exitDx=0;exitDy=0;exitPerimeter=0;" edge="1" parent="1">
          <mxGeometry width="50" height="50" relative="1" as="geometry">
            <mxPoint x="330" y="259.99999999999994" as="sourcePoint" />
            <mxPoint x="330" y="400" as="targetPoint" />
          </mxGeometry>
        </mxCell>
        <mxCell id="aYPPFLXNqS9zzQtZPR38-12" value="Хорошо" style="text;html=1;align=center;verticalAlign=middle;resizable=0;points=[];autosize=1;strokeColor=none;fillColor=none;" vertex="1" parent="1">
          <mxGeometry x="210" y="200" width="70" height="30" as="geometry" />
        </mxCell>
        <mxCell id="aYPPFLXNqS9zzQtZPR38-14" value="" style="rounded=0;whiteSpace=wrap;html=1;" vertex="1" parent="1">
          <mxGeometry x="30" y="190" width="170" height="80" as="geometry" />
        </mxCell>
        <mxCell id="aYPPFLXNqS9zzQtZPR38-15" value="В отличии от других&amp;nbsp;&lt;br&gt;банковских карт, наша имеет&amp;nbsp;&lt;br&gt;следующие преимущества:&lt;br&gt;(перечисление преимуществ)" style="text;html=1;align=center;verticalAlign=middle;resizable=0;points=[];autosize=1;strokeColor=none;fillColor=none;" vertex="1" parent="1">
          <mxGeometry x="20" y="190" width="190" height="70" as="geometry" />
        </mxCell>
        <mxCell id="aYPPFLXNqS9zzQtZPR38-16" value="" style="endArrow=classic;html=1;rounded=0;" edge="1" parent="1">
          <mxGeometry width="50" height="50" relative="1" as="geometry">
            <mxPoint x="120" y="190" as="sourcePoint" />
            <mxPoint x="120" y="80" as="targetPoint" />
          </mxGeometry>
        </mxCell>
        <mxCell id="aYPPFLXNqS9zzQtZPR38-17" value="Всё равно не интересует" style="text;html=1;align=center;verticalAlign=middle;resizable=0;points=[];autosize=1;strokeColor=none;fillColor=none;" vertex="1" parent="1">
          <mxGeometry x="850" y="60" width="160" height="30" as="geometry" />
        </mxCell>
        <mxCell id="aYPPFLXNqS9zzQtZPR38-18" value="Не интересует" style="text;html=1;align=center;verticalAlign=middle;resizable=0;points=[];autosize=1;strokeColor=none;fillColor=none;rotation=270;" vertex="1" parent="1">
          <mxGeometry x="60" y="130" width="100" height="30" as="geometry" />
        </mxCell>
        <mxCell id="aYPPFLXNqS9zzQtZPR38-19" value="" style="rounded=0;whiteSpace=wrap;html=1;" vertex="1" parent="1">
          <mxGeometry x="40" y="40" width="160" height="40" as="geometry" />
        </mxCell>
        <mxCell id="aYPPFLXNqS9zzQtZPR38-20" value="Хорошо, удачного вам дня&lt;br&gt;До свидания!" style="text;html=1;align=center;verticalAlign=middle;resizable=0;points=[];autosize=1;strokeColor=none;fillColor=none;" vertex="1" parent="1">
          <mxGeometry x="35" y="40" width="170" height="40" as="geometry" />
        </mxCell>
        <mxCell id="aYPPFLXNqS9zzQtZPR38-21" value="" style="endArrow=classic;html=1;rounded=0;exitX=0.5;exitY=1;exitDx=0;exitDy=0;" edge="1" parent="1" source="aYPPFLXNqS9zzQtZPR38-14">
          <mxGeometry width="50" height="50" relative="1" as="geometry">
            <mxPoint x="210" y="380" as="sourcePoint" />
            <mxPoint x="115" y="360" as="targetPoint" />
          </mxGeometry>
        </mxCell>
        <mxCell id="aYPPFLXNqS9zzQtZPR38-22" value="" style="rounded=0;whiteSpace=wrap;html=1;" vertex="1" parent="1">
          <mxGeometry x="60" y="360" width="170" height="40" as="geometry" />
        </mxCell>
        <mxCell id="aYPPFLXNqS9zzQtZPR38-23" value="Интересует" style="text;html=1;align=center;verticalAlign=middle;resizable=0;points=[];autosize=1;strokeColor=none;fillColor=none;rotation=90;" vertex="1" parent="1">
          <mxGeometry x="80" y="300" width="90" height="30" as="geometry" />
        </mxCell>
        <mxCell id="aYPPFLXNqS9zzQtZPR38-24" value="(приступаем к оформлению)&lt;br&gt;Хорошего дня, досвидания" style="text;html=1;align=center;verticalAlign=middle;resizable=0;points=[];autosize=1;strokeColor=none;fillColor=none;" vertex="1" parent="1">
          <mxGeometry x="55" y="360" width="180" height="40" as="geometry" />
        </mxCell>
        <mxCell id="aYPPFLXNqS9zzQtZPR38-25" value="Не интересует" style="text;html=1;align=center;verticalAlign=middle;resizable=0;points=[];autosize=1;strokeColor=none;fillColor=none;" vertex="1" parent="1">
          <mxGeometry x="520" y="200" width="100" height="30" as="geometry" />
        </mxCell>
        <mxCell id="aYPPFLXNqS9zzQtZPR38-26" value="" style="rounded=0;whiteSpace=wrap;html=1;" vertex="1" parent="1">
          <mxGeometry x="640" y="200" width="170" height="50" as="geometry" />
        </mxCell>
        <mxCell id="aYPPFLXNqS9zzQtZPR38-27" value="Хорошо, в случае если&lt;br&gt;передумаете перезвоните&lt;br&gt;Удачного дня!" style="text;html=1;align=center;verticalAlign=middle;resizable=0;points=[];autosize=1;strokeColor=none;fillColor=none;" vertex="1" parent="1">
          <mxGeometry x="640" y="190" width="170" height="60" as="geometry" />
        </mxCell>
        <mxCell id="aYPPFLXNqS9zzQtZPR38-28" value="Откуда у вас мой номер" style="text;html=1;align=center;verticalAlign=middle;resizable=0;points=[];autosize=1;strokeColor=none;fillColor=none;rotation=90;" vertex="1" parent="1">
          <mxGeometry x="260" y="310" width="160" height="30" as="geometry" />
        </mxCell>
        <mxCell id="aYPPFLXNqS9zzQtZPR38-29" value="" style="rounded=0;whiteSpace=wrap;html=1;" vertex="1" parent="1">
          <mxGeometry x="260" y="400" width="180" height="70" as="geometry" />
        </mxCell>
        <mxCell id="aYPPFLXNqS9zzQtZPR38-30" value="Извините, мы не можем&lt;br&gt;разглашать корпоративные&lt;br&gt;тайны, желаете ознакомится&lt;br&gt;с плюсами нашей кредитной&lt;br&gt;карты?" style="text;html=1;align=center;verticalAlign=middle;resizable=0;points=[];autosize=1;strokeColor=none;fillColor=none;" vertex="1" parent="1">
          <mxGeometry x="260" y="390" width="180" height="90" as="geometry" />
        </mxCell>
        <mxCell id="aYPPFLXNqS9zzQtZPR38-31" value="" style="edgeStyle=none;orthogonalLoop=1;jettySize=auto;html=1;rounded=0;exitX=-0.006;exitY=0.092;exitDx=0;exitDy=0;exitPerimeter=0;entryX=1;entryY=1;entryDx=0;entryDy=0;" edge="1" parent="1" source="aYPPFLXNqS9zzQtZPR38-30" target="aYPPFLXNqS9zzQtZPR38-14">
          <mxGeometry width="100" relative="1" as="geometry">
            <mxPoint x="210" y="330" as="sourcePoint" />
            <mxPoint x="310" y="330" as="targetPoint" />
            <Array as="points" />
          </mxGeometry>
        </mxCell>
        <mxCell id="aYPPFLXNqS9zzQtZPR38-32" value="Интересует" style="text;html=1;align=center;verticalAlign=middle;resizable=0;points=[];autosize=1;strokeColor=none;fillColor=none;rotation=65;" vertex="1" parent="1">
          <mxGeometry x="200" y="310" width="90" height="30" as="geometry" />
        </mxCell>
        <mxCell id="aYPPFLXNqS9zzQtZPR38-33" value="" style="endArrow=classic;html=1;rounded=0;entryX=-0.009;entryY=1.04;entryDx=0;entryDy=0;entryPerimeter=0;" edge="1" parent="1" target="aYPPFLXNqS9zzQtZPR38-27">
          <mxGeometry width="50" height="50" relative="1" as="geometry">
            <mxPoint x="440" y="400" as="sourcePoint" />
            <mxPoint x="490" y="350" as="targetPoint" />
          </mxGeometry>
        </mxCell>
        <mxCell id="aYPPFLXNqS9zzQtZPR38-34" value="Не интересует" style="text;html=1;align=center;verticalAlign=middle;resizable=0;points=[];autosize=1;strokeColor=none;fillColor=none;rotation=-35;" vertex="1" parent="1">
          <mxGeometry x="480" y="300" width="100" height="30" as="geometry" />
        </mxCell>
      </root>
    </mxGraphModel>
  </diagram>
</mxfile>
